<svg width="121" height="84" viewBox="0 0 121 84" fill="none" xmlns="http://www.w3.org/2000/svg">
<path d="M21.1393 29.2V38.16H26.3893C27.6026 38.16 28.4193 37.8567 28.8393 37.25C29.2593 36.5967 29.4693 35.8033 29.4693 34.87V32.49C29.4693 31.5567 29.2593 30.7867 28.8393 30.18C28.4193 29.5267 27.6026 29.2 26.3893 29.2H21.1393ZM18.6193 67H7.83926C6.95259 67 6.29926 66.8133 5.87926 66.44C5.50592 66.02 5.31926 65.3667 5.31926 64.48V19.12C5.31926 18.2333 5.50592 17.6033 5.87926 17.23C6.29926 16.81 6.95259 16.6 7.83926 16.6H31.1493C36.3759 16.6 39.9693 17.6967 41.9293 19.89C43.9359 22.0367 44.9393 24.8367 44.9393 28.29V31.51C44.9393 33.47 44.6359 35.15 44.0293 36.55C43.4693 37.9033 42.4659 38.8833 41.0193 39.49C43.5393 39.77 45.5693 40.7967 47.1093 42.57C48.6959 44.3433 49.4893 46.7 49.4893 49.64V64.48C49.4893 65.3667 49.2793 66.02 48.8593 66.44C48.4859 66.8133 47.8559 67 46.9693 67H36.1193C35.2326 67 34.5793 66.8133 34.1593 66.44C33.7859 66.02 33.5993 65.3667 33.5993 64.48V53.77C33.5993 52.7433 33.3893 51.9967 32.9693 51.53C32.5959 51.0167 31.9193 50.76 30.9393 50.76H21.1393V64.48C21.1393 65.3667 20.9293 66.02 20.5093 66.44C20.1359 66.8133 19.5059 67 18.6193 67Z" fill="#009867"/>
<path d="M78.6043 58H75.5043C75.251 58 75.0643 57.9467 74.9443 57.84C74.8376 57.72 74.7843 57.5333 74.7843 57.28V44.32C74.7843 44.0667 74.8376 43.8867 74.9443 43.78C75.0643 43.66 75.251 43.6 75.5043 43.6H81.6243C83.4376 43.6 84.6776 43.96 85.3443 44.68C86.011 45.4 86.3443 46.34 86.3443 47.5V50.06C86.3443 51.22 86.011 52.16 85.3443 52.88C84.6776 53.6 83.4376 53.96 81.6243 53.96H79.3243V57.28C79.3243 57.5333 79.2643 57.72 79.1443 57.84C79.0376 57.9467 78.8576 58 78.6043 58ZM79.2843 47.34V50.36H81.0843C81.471 50.36 81.7243 50.26 81.8443 50.06C81.9643 49.86 82.0243 49.6333 82.0243 49.38V48.32C82.0243 48.0667 81.9643 47.84 81.8443 47.64C81.7243 47.44 81.471 47.34 81.0843 47.34H79.2843ZM97.9971 58H93.1171C91.4504 58 90.2104 57.6667 89.3971 57C88.5971 56.3333 88.1971 55.3067 88.1971 53.92V47.7C88.1971 46.3133 88.5971 45.2867 89.3971 44.62C90.2104 43.94 91.4504 43.6 93.1171 43.6H97.9971C98.2504 43.6 98.4304 43.66 98.5371 43.78C98.6571 43.8867 98.7171 44.0667 98.7171 44.32V46.74C98.7171 46.9933 98.6571 47.18 98.5371 47.3C98.4304 47.4067 98.2504 47.46 97.9971 47.46H93.9771C93.5638 47.46 93.2571 47.5467 93.0571 47.72C92.8571 47.88 92.7571 48.1267 92.7571 48.46V53.22C92.7571 53.5533 92.8571 53.8 93.0571 53.96C93.2571 54.1067 93.5638 54.18 93.9771 54.18H97.9971C98.2504 54.18 98.4304 54.24 98.5371 54.36C98.6571 54.4667 98.7171 54.6467 98.7171 54.9V57.28C98.7171 57.5333 98.6571 57.72 98.5371 57.84C98.4304 57.9467 98.2504 58 97.9971 58Z" fill="#009867" fill-opacity="0.35"/>
<path d="M57.3657 29.28V31.584H58.7157C59.0277 31.584 59.2377 31.506 59.3457 31.35C59.4537 31.182 59.5077 30.978 59.5077 30.738V30.126C59.5077 29.886 59.4537 29.688 59.3457 29.532C59.2377 29.364 59.0277 29.28 58.7157 29.28H57.3657ZM56.7177 39H53.9457C53.7177 39 53.5497 38.952 53.4417 38.856C53.3457 38.748 53.2977 38.58 53.2977 38.352V26.688C53.2977 26.46 53.3457 26.298 53.4417 26.202C53.5497 26.094 53.7177 26.04 53.9457 26.04H59.9397C61.2837 26.04 62.2077 26.322 62.7117 26.886C63.2277 27.438 63.4857 28.158 63.4857 29.046V29.874C63.4857 30.378 63.4077 30.81 63.2517 31.17C63.1077 31.518 62.8497 31.77 62.4777 31.926C63.1257 31.998 63.6477 32.262 64.0437 32.718C64.4517 33.174 64.6557 33.78 64.6557 34.536V38.352C64.6557 38.58 64.6017 38.748 64.4937 38.856C64.3977 38.952 64.2357 39 64.0077 39H61.2177C60.9897 39 60.8217 38.952 60.7137 38.856C60.6177 38.748 60.5697 38.58 60.5697 38.352V35.598C60.5697 35.334 60.5157 35.142 60.4077 35.022C60.3117 34.89 60.1377 34.824 59.8857 34.824H57.3657V38.352C57.3657 38.58 57.3117 38.748 57.2037 38.856C57.1077 38.952 56.9457 39 56.7177 39ZM77.7086 35.598C77.7086 36.15 77.6246 36.654 77.4566 37.11C77.3006 37.554 77.0126 37.938 76.5926 38.262C76.1846 38.574 75.6206 38.82 74.9006 39C74.1806 39.18 73.2626 39.27 72.1466 39.27C71.0306 39.27 70.1126 39.18 69.3926 39C68.6726 38.82 68.1026 38.574 67.6826 38.262C67.2746 37.938 66.9866 37.554 66.8186 37.11C66.6626 36.654 66.5846 36.15 66.5846 35.598V26.688C66.5846 26.46 66.6326 26.298 66.7286 26.202C66.8366 26.094 67.0046 26.04 67.2326 26.04H70.0586C70.2866 26.04 70.4486 26.094 70.5446 26.202C70.6526 26.298 70.7066 26.46 70.7066 26.688V34.896C70.7066 35.136 70.7966 35.34 70.9766 35.508C71.1566 35.664 71.5586 35.742 72.1826 35.742C72.8186 35.742 73.2266 35.664 73.4066 35.508C73.5866 35.34 73.6766 35.136 73.6766 34.896V26.688C73.6766 26.46 73.7246 26.298 73.8206 26.202C73.9286 26.094 74.0966 26.04 74.3246 26.04H77.0606C77.2886 26.04 77.4506 26.094 77.5466 26.202C77.6546 26.298 77.7086 26.46 77.7086 26.688V35.598ZM83.4343 39H80.7523C80.5243 39 80.3563 38.952 80.2483 38.856C80.1523 38.748 80.1043 38.58 80.1043 38.352V26.688C80.1043 26.46 80.1523 26.298 80.2483 26.202C80.3563 26.094 80.5243 26.04 80.7523 26.04H83.6503C83.8423 26.04 83.9983 26.082 84.1183 26.166C84.2503 26.25 84.3703 26.388 84.4783 26.58L86.0983 29.514C86.1583 29.622 86.2063 29.7 86.2423 29.748C86.2903 29.796 86.3503 29.82 86.4223 29.82H86.5843C86.6563 29.82 86.7103 29.796 86.7463 29.748C86.7943 29.7 86.8483 29.622 86.9083 29.514L88.5103 26.58C88.6183 26.388 88.7323 26.25 88.8523 26.166C88.9843 26.082 89.1463 26.04 89.3383 26.04H92.2543C92.4823 26.04 92.6443 26.094 92.7403 26.202C92.8483 26.298 92.9023 26.46 92.9023 26.688V38.352C92.9023 38.58 92.8483 38.748 92.7403 38.856C92.6443 38.952 92.4823 39 92.2543 39H89.4823C89.2543 39 89.0863 38.952 88.9783 38.856C88.8823 38.748 88.8343 38.58 88.8343 38.352V32.016L87.7723 33.978C87.6643 34.182 87.5323 34.332 87.3763 34.428C87.2323 34.512 87.0463 34.554 86.8183 34.554H86.0983C85.8703 34.554 85.6783 34.512 85.5223 34.428C85.3783 34.332 85.2523 34.182 85.1443 33.978L84.0823 32.016V38.352C84.0823 38.58 84.0283 38.748 83.9203 38.856C83.8243 38.952 83.6623 39 83.4343 39ZM100.078 29.82L99.2317 32.556H102.058L101.212 29.82C101.164 29.712 101.11 29.634 101.05 29.586C101.002 29.538 100.942 29.514 100.87 29.514H100.42C100.348 29.514 100.282 29.538 100.222 29.586C100.174 29.634 100.126 29.712 100.078 29.82ZM99.0517 38.352C99.0517 38.58 98.9977 38.748 98.8897 38.856C98.7937 38.952 98.6317 39 98.4037 39H95.7577C95.5297 39 95.3617 38.952 95.2537 38.856C95.1577 38.748 95.1097 38.58 95.1097 38.352V33.6C95.1097 33.24 95.1637 32.826 95.2717 32.358C95.3917 31.89 95.5717 31.344 95.8117 30.72L97.3777 26.634C97.4497 26.43 97.5577 26.28 97.7017 26.184C97.8577 26.088 98.0557 26.04 98.2957 26.04H103.138C103.366 26.04 103.552 26.088 103.696 26.184C103.852 26.28 103.966 26.43 104.038 26.634L105.604 30.72C105.844 31.344 106.018 31.89 106.126 32.358C106.246 32.826 106.306 33.24 106.306 33.6V38.352C106.306 38.58 106.252 38.748 106.144 38.856C106.048 38.952 105.886 39 105.658 39H102.94C102.7 39 102.52 38.952 102.4 38.856C102.292 38.748 102.238 38.58 102.238 38.352V35.832H99.0517V38.352ZM111.966 39H109.176C108.948 39 108.78 38.952 108.672 38.856C108.576 38.748 108.528 38.58 108.528 38.352V26.688C108.528 26.46 108.576 26.298 108.672 26.202C108.78 26.094 108.948 26.04 109.176 26.04H111.966C112.194 26.04 112.356 26.094 112.452 26.202C112.56 26.298 112.614 26.46 112.614 26.688V30.594H115.62V26.688C115.62 26.46 115.668 26.298 115.764 26.202C115.872 26.094 116.04 26.04 116.268 26.04H119.058C119.286 26.04 119.448 26.094 119.544 26.202C119.652 26.298 119.706 26.46 119.706 26.688V38.352C119.706 38.58 119.652 38.748 119.544 38.856C119.448 38.952 119.286 39 119.058 39H116.268C116.04 39 115.872 38.952 115.764 38.856C115.668 38.748 115.62 38.58 115.62 38.352V34.356H112.614V38.352C112.614 38.58 112.56 38.748 112.452 38.856C112.356 38.952 112.194 39 111.966 39Z" fill="#009867" fill-opacity="0.35"/>
<rect x="54" y="47.95" width="17" height="5.1" rx="2.55" fill="#009867"/>
<rect x="59.95" y="59" width="17" height="5.1" rx="2.55" transform="rotate(-90 59.95 59)" fill="#009867"/>
</svg>
